<mxfile host="app.diagrams.net" agent="Mozilla/5.0 (Macintosh; Intel Mac OS X 10_15_7) AppleWebKit/537.36 (KHTML, like Gecko) Chrome/139.0.0.0 Safari/537.36" version="28.1.2">
  <diagram name="第 1 页" id="aEzMx8Fke9aV49F-6-iQ">
    <mxGraphModel dx="2253" dy="824" grid="1" gridSize="10" guides="1" tooltips="1" connect="1" arrows="1" fold="1" page="1" pageScale="1" pageWidth="827" pageHeight="1169" math="0" shadow="0">
      <root>
        <mxCell id="0" />
        <mxCell id="1" parent="0" />
        <mxCell id="TBjgYFarW2Dbs7BD7Aav-6" value="" style="rounded=0;whiteSpace=wrap;html=1;dashed=1;dashPattern=8 8;container=0;" parent="1" vertex="1">
          <mxGeometry x="499.996265060241" y="144.43109289617487" width="936.433734939759" height="84.15300546448087" as="geometry" />
        </mxCell>
        <mxCell id="TBjgYFarW2Dbs7BD7Aav-13" style="edgeStyle=orthogonalEdgeStyle;rounded=0;orthogonalLoop=1;jettySize=auto;html=1;entryX=0;entryY=0.5;entryDx=0;entryDy=0;" parent="1" source="TBjgYFarW2Dbs7BD7Aav-2" target="TBjgYFarW2Dbs7BD7Aav-12" edge="1">
          <mxGeometry relative="1" as="geometry">
            <Array as="points">
              <mxPoint x="516.7469879518072" y="285.95628415300547" />
              <mxPoint x="516.7469879518072" y="186.50273224043715" />
            </Array>
          </mxGeometry>
        </mxCell>
        <mxCell id="TBjgYFarW2Dbs7BD7Aav-68" style="edgeStyle=orthogonalEdgeStyle;rounded=0;orthogonalLoop=1;jettySize=auto;html=1;entryX=0;entryY=0.5;entryDx=0;entryDy=0;" parent="1" source="TBjgYFarW2Dbs7BD7Aav-2" target="TBjgYFarW2Dbs7BD7Aav-63" edge="1">
          <mxGeometry relative="1" as="geometry">
            <Array as="points">
              <mxPoint x="516.7469879518072" y="285.95628415300547" />
              <mxPoint x="516.7469879518072" y="561.3661202185792" />
            </Array>
          </mxGeometry>
        </mxCell>
        <mxCell id="TBjgYFarW2Dbs7BD7Aav-2" value="&lt;span style=&quot;font-family: ui-sans-serif, system-ui, sans-serif, &amp;quot;Apple Color Emoji&amp;quot;, &amp;quot;Segoe UI Emoji&amp;quot;, &amp;quot;Segoe UI Symbol&amp;quot;, &amp;quot;Noto Color Emoji&amp;quot;; text-align: left; text-wrap-mode: nowrap;&quot;&gt;&lt;font style=&quot;color: light-dark(rgb(0, 0, 0), rgb(255, 255, 255));&quot;&gt;main.web-svr.web-interface&lt;/font&gt;&lt;/span&gt;" style="rounded=1;whiteSpace=wrap;html=1;container=0;" parent="1" vertex="1">
          <mxGeometry x="268.86746987951807" y="263.0054644808743" width="165.25301204819277" height="45.90163934426229" as="geometry" />
        </mxCell>
        <mxCell id="TBjgYFarW2Dbs7BD7Aav-4" style="edgeStyle=orthogonalEdgeStyle;rounded=0;orthogonalLoop=1;jettySize=auto;html=1;entryX=0;entryY=0.5;entryDx=0;entryDy=0;" parent="1" target="TBjgYFarW2Dbs7BD7Aav-2" edge="1">
          <mxGeometry relative="1" as="geometry">
            <mxPoint x="-37.43387978142073" y="286" as="sourcePoint" />
          </mxGeometry>
        </mxCell>
        <mxCell id="TBjgYFarW2Dbs7BD7Aav-69" value="&lt;span style=&quot;font-family: ui-sans-serif, system-ui, sans-serif, &amp;quot;Apple Color Emoji&amp;quot;, &amp;quot;Segoe UI Emoji&amp;quot;, &amp;quot;Segoe UI Symbol&amp;quot;, &amp;quot;Noto Color Emoji&amp;quot;; font-size: 14px; text-align: left; text-wrap-mode: wrap;&quot;&gt;&lt;font style=&quot;color: light-dark(rgb(0, 0, 0), rgb(255, 255, 255));&quot;&gt;/x/web-interface/wbi/index/top/feed/rcmd&lt;/font&gt;&lt;/span&gt;" style="text;html=1;align=center;verticalAlign=middle;resizable=0;points=[];autosize=1;strokeColor=none;fillColor=none;container=0;" parent="1" vertex="1">
          <mxGeometry x="-15.734939759036138" y="255.3551912568306" width="290" height="30" as="geometry" />
        </mxCell>
        <mxCell id="kkx-y02vZw7PXE-kP8p6-1" value="/recommand" style="text;html=1;align=center;verticalAlign=middle;resizable=0;points=[];autosize=1;strokeColor=none;fillColor=none;container=0;" vertex="1" parent="1">
          <mxGeometry x="516.7469879518072" y="232.40437158469945" width="90" height="30" as="geometry" />
        </mxCell>
        <mxCell id="TBjgYFarW2Dbs7BD7Aav-44" value="&lt;span&gt;&lt;span&gt;&lt;font style=&quot;color: light-dark(rgb(255, 255, 255), rgb(255, 255, 255));&quot;&gt;&lt;span style=&quot;box-sizing: border-box; border: 0px solid; margin: 0px 0px 0px 5px; padding: 0px; font-family: ui-sans-serif, system-ui, sans-serif, &amp;quot;Apple Color Emoji&amp;quot;, &amp;quot;Segoe UI Emoji&amp;quot;, &amp;quot;Segoe UI Symbol&amp;quot;, &amp;quot;Noto Color Emoji&amp;quot;; font-size: 14px; text-align: left; text-wrap-mode: wrap;&quot; data-v-6d79ae31=&quot;&quot;&gt;/video.live_core.stream_core.v1.streamCoreServer/GetStreamAvCoversMutilSource&lt;/span&gt;&lt;span style=&quot;box-sizing: border-box; border: 1px solid rgb(225, 243, 216); margin: 0px 0px 0px 20px; padding: 0px 9px; align-items: center; border-radius: 4px; display: inline-flex; height: 24px; justify-content: center; vertical-align: middle; font-family: ui-sans-serif, system-ui, sans-serif, &amp;quot;Apple Color Emoji&amp;quot;, &amp;quot;Segoe UI Emoji&amp;quot;, &amp;quot;Segoe UI Symbol&amp;quot;, &amp;quot;Noto Color Emoji&amp;quot;; text-align: left; --el-tag-font-size: 12px; --el-tag-border-radius: 4px; --el-tag-border-radius-rounded: 9999px; line-height: 1; --el-icon-size: 14px; --el-tag-bg-color: rgb(239.8,248.9,235.3); --el-tag-border-color: rgb(224.6,242.8,215.6); --el-tag-hover-color: #67c23a; --el-tag-text-color: #67c23a;&quot; class=&quot;el-tag el-tag--success el-tag--light&quot; data-v-6d79ae31=&quot;&quot;&gt;&lt;/span&gt;&lt;/font&gt;&lt;/span&gt;&lt;/span&gt;&lt;div&gt;&lt;br&gt;&lt;/div&gt;" style="text;html=1;align=center;verticalAlign=middle;resizable=0;points=[];autosize=1;strokeColor=none;fillColor=none;container=0;" parent="1" vertex="1">
          <mxGeometry x="1049.2289156626507" y="1471.7486338797814" width="600" height="50" as="geometry" />
        </mxCell>
        <mxCell id="TBjgYFarW2Dbs7BD7Aav-60" value="" style="endArrow=classic;html=1;rounded=0;entryX=0;entryY=0.5;entryDx=0;entryDy=0;" parent="1" edge="1">
          <mxGeometry width="50" height="50" relative="1" as="geometry">
            <mxPoint x="842.6626506024097" y="560.983606557377" as="sourcePoint" />
            <mxPoint x="1127.265060240964" y="560.983606557377" as="targetPoint" />
            <Array as="points">
              <mxPoint x="998.7349397590363" y="560.983606557377" />
            </Array>
          </mxGeometry>
        </mxCell>
        <UserObject label="&lt;span style=&quot;font-family: ui-sans-serif, system-ui, sans-serif, &amp;quot;Apple Color Emoji&amp;quot;, &amp;quot;Segoe UI Emoji&amp;quot;, &amp;quot;Segoe UI Symbol&amp;quot;, &amp;quot;Noto Color Emoji&amp;quot;; font-size: 14px; font-style: normal; font-variant-ligatures: normal; font-variant-caps: normal; font-weight: 400; letter-spacing: normal; orphans: 2; text-align: left; text-indent: 0px; text-transform: none; widows: 2; word-spacing: 0px; -webkit-text-stroke-width: 0px; white-space: normal; text-decoration-thickness: initial; text-decoration-style: initial; text-decoration-color: initial; float: none; display: inline !important;&quot;&gt;&lt;font style=&quot;color: light-dark(rgb(0, 0, 0), rgb(255, 255, 255));&quot;&gt;/live.xroom.v1.Room/EntryRoomInfo&lt;/font&gt;&lt;/span&gt;" link="&lt;span style=&quot;color: rgb(96, 98, 102); font-family: ui-sans-serif, system-ui, sans-serif, &amp;quot;Apple Color Emoji&amp;quot;, &amp;quot;Segoe UI Emoji&amp;quot;, &amp;quot;Segoe UI Symbol&amp;quot;, &amp;quot;Noto Color Emoji&amp;quot;; font-size: 14px; font-style: normal; font-variant-ligatures: normal; font-variant-caps: normal; font-weight: 400; letter-spacing: normal; orphans: 2; text-align: left; text-indent: 0px; text-transform: none; widows: 2; word-spacing: 0px; -webkit-text-stroke-width: 0px; white-space: normal; background-color: rgb(236, 245, 255); text-decoration-thickness: initial; text-decoration-style: initial; text-decoration-color: initial; display: inline !important; float: none;&quot;&gt;/live.xroom.v1.Room/GetMultiple&lt;/span&gt;" id="TBjgYFarW2Dbs7BD7Aav-61">
          <mxCell style="text;whiteSpace=wrap;html=1;container=0;" parent="1" vertex="1">
            <mxGeometry x="870.2048192771084" y="530.7650273224044" width="211.1566265060241" height="30.601092896174862" as="geometry" />
          </mxCell>
        </UserObject>
        <mxCell id="TBjgYFarW2Dbs7BD7Aav-62" style="edgeStyle=orthogonalEdgeStyle;rounded=0;orthogonalLoop=1;jettySize=auto;html=1;exitX=0.5;exitY=0;exitDx=0;exitDy=0;entryX=0;entryY=0.5;entryDx=0;entryDy=0;" parent="1" source="TBjgYFarW2Dbs7BD7Aav-63" target="TBjgYFarW2Dbs7BD7Aav-64" edge="1">
          <mxGeometry relative="1" as="geometry">
            <Array as="points">
              <mxPoint x="792.1686746987953" y="400.7103825136612" />
              <mxPoint x="1260.3855421686746" y="400.7103825136612" />
            </Array>
          </mxGeometry>
        </mxCell>
        <mxCell id="TBjgYFarW2Dbs7BD7Aav-63" value="live.live.xroom-gate" style="rounded=1;whiteSpace=wrap;html=1;container=0;" parent="1" vertex="1">
          <mxGeometry x="737.0843373493976" y="538.4153005464481" width="110.16867469879519" height="45.90163934426229" as="geometry" />
        </mxCell>
        <mxCell id="TBjgYFarW2Dbs7BD7Aav-64" value="&lt;div style=&quot;font-family: Menlo, Monaco, &amp;quot;Courier New&amp;quot;, monospace; line-height: 18px; white-space: pre;&quot;&gt;&lt;span&gt;&lt;font style=&quot;color: light-dark(rgb(0, 0, 0), rgb(255, 255, 255));&quot;&gt;live&lt;span&gt;.&lt;/span&gt;live&lt;span&gt;.&lt;/span&gt;watched&lt;/font&gt;&lt;/span&gt;&lt;/div&gt;" style="rounded=1;whiteSpace=wrap;html=1;container=0;" parent="1" vertex="1">
          <mxGeometry x="1288.8457831325302" y="377.75956284153006" width="165.25301204819277" height="45.90163934426229" as="geometry" />
        </mxCell>
        <mxCell id="TBjgYFarW2Dbs7BD7Aav-65" value="&lt;span style=&quot;font-family: ui-sans-serif, system-ui, sans-serif, &amp;quot;Apple Color Emoji&amp;quot;, &amp;quot;Segoe UI Emoji&amp;quot;, &amp;quot;Segoe UI Symbol&amp;quot;, &amp;quot;Noto Color Emoji&amp;quot;; font-size: 14px; text-align: left; text-wrap-mode: wrap;&quot;&gt;&lt;font style=&quot;color: light-dark(rgb(0, 0, 0), rgb(255, 255, 255));&quot;&gt;/live.watched.v1.Watch/Display&lt;/font&gt;&lt;/span&gt;" style="text;html=1;align=center;verticalAlign=middle;resizable=0;points=[];autosize=1;strokeColor=none;fillColor=none;container=0;" parent="1" vertex="1">
          <mxGeometry x="975.7831325301206" y="370.1092896174863" width="220" height="30" as="geometry" />
        </mxCell>
        <mxCell id="TBjgYFarW2Dbs7BD7Aav-67" value="&lt;span style=&quot;font-family: ui-sans-serif, system-ui, sans-serif, &amp;quot;Apple Color Emoji&amp;quot;, &amp;quot;Segoe UI Emoji&amp;quot;, &amp;quot;Segoe UI Symbol&amp;quot;, &amp;quot;Noto Color Emoji&amp;quot;; font-size: 14px; text-align: left; text-wrap-mode: wrap;&quot;&gt;/live.xroomgate.v1.Xroomgate/EntryRoomInfo&lt;/span&gt;" style="text;html=1;align=center;verticalAlign=middle;resizable=0;points=[];autosize=1;strokeColor=none;fillColor=none;container=0;" parent="1" vertex="1">
          <mxGeometry x="507.566265060241" y="416.0109289617486" width="310" height="30" as="geometry" />
        </mxCell>
        <mxCell id="TBjgYFarW2Dbs7BD7Aav-7" style="edgeStyle=orthogonalEdgeStyle;rounded=0;orthogonalLoop=1;jettySize=auto;html=1;entryX=0;entryY=0.5;entryDx=0;entryDy=0;" parent="1" target="TBjgYFarW2Dbs7BD7Aav-9" edge="1">
          <mxGeometry relative="1" as="geometry">
            <mxPoint x="746.2650602409639" y="187.26775956284152" as="sourcePoint" />
          </mxGeometry>
        </mxCell>
        <mxCell id="TBjgYFarW2Dbs7BD7Aav-8" style="edgeStyle=orthogonalEdgeStyle;rounded=0;orthogonalLoop=1;jettySize=auto;html=1;entryX=0;entryY=0.5;entryDx=0;entryDy=0;" parent="1" source="TBjgYFarW2Dbs7BD7Aav-9" target="TBjgYFarW2Dbs7BD7Aav-10" edge="1">
          <mxGeometry relative="1" as="geometry" />
        </mxCell>
        <mxCell id="TBjgYFarW2Dbs7BD7Aav-9" value="&amp;nbsp;ai.web-peagsus.pc-mixer" style="rounded=1;whiteSpace=wrap;html=1;container=0;" parent="1" vertex="1">
          <mxGeometry x="853.6795180722892" y="164.3169398907104" width="177.18795180722893" height="45.90163934426229" as="geometry" />
        </mxCell>
        <mxCell id="TBjgYFarW2Dbs7BD7Aav-10" value="ai.live.livestream-feed" style="rounded=1;whiteSpace=wrap;html=1;container=0;" parent="1" vertex="1">
          <mxGeometry x="1177.7590361445784" y="164.3169398907104" width="183.6144578313253" height="45.90163934426229" as="geometry" />
        </mxCell>
        <mxCell id="TBjgYFarW2Dbs7BD7Aav-11" value="天马web推荐链路" style="text;html=1;align=center;verticalAlign=middle;resizable=0;points=[];autosize=1;strokeColor=none;fillColor=none;container=0;" parent="1" vertex="1">
          <mxGeometry x="920.6987951807229" y="110" width="120" height="30" as="geometry" />
        </mxCell>
        <UserObject label="ai.router.router-web-pegasus" link="ai.router.router-pegasus" id="TBjgYFarW2Dbs7BD7Aav-12">
          <mxCell style="rounded=1;whiteSpace=wrap;html=1;container=0;" parent="1" vertex="1">
            <mxGeometry x="590.1927710843373" y="163.55191256830602" width="156.0722891566265" height="45.90163934426229" as="geometry" />
          </mxCell>
        </UserObject>
        <mxCell id="TBjgYFarW2Dbs7BD7Aav-18" style="edgeStyle=orthogonalEdgeStyle;rounded=0;orthogonalLoop=1;jettySize=auto;html=1;entryX=0;entryY=0.5;entryDx=0;entryDy=0;" parent="1" source="TBjgYFarW2Dbs7BD7Aav-21" target="TBjgYFarW2Dbs7BD7Aav-22" edge="1">
          <mxGeometry relative="1" as="geometry">
            <Array as="points">
              <mxPoint x="1714.831325301205" y="561.3661202185792" />
            </Array>
          </mxGeometry>
        </mxCell>
        <mxCell id="TBjgYFarW2Dbs7BD7Aav-21" value="live.live.xroom" style="rounded=1;whiteSpace=wrap;html=1;container=0;" parent="1" vertex="1">
          <mxGeometry x="1127.265060240964" y="538.4153005464481" width="110.16867469879519" height="45.90163934426229" as="geometry" />
        </mxCell>
        <mxCell id="TBjgYFarW2Dbs7BD7Aav-22" value="live.live.dao-anchor" style="rounded=1;whiteSpace=wrap;html=1;container=0;" parent="1" vertex="1">
          <mxGeometry x="1714.831325301205" y="538.4153005464481" width="110.16867469879519" height="45.90163934426229" as="geometry" />
        </mxCell>
        <mxCell id="TBjgYFarW2Dbs7BD7Aav-39" value="热门房间本地缓存" style="shape=process;whiteSpace=wrap;html=1;backgroundOutline=1;container=0;" parent="1" vertex="1">
          <mxGeometry x="1122.67" y="500" width="137.33" height="38.42" as="geometry" />
        </mxCell>
        <mxCell id="TBjgYFarW2Dbs7BD7Aav-57" value="&lt;span style=&quot;font-family: ui-sans-serif, system-ui, sans-serif, &amp;quot;Apple Color Emoji&amp;quot;, &amp;quot;Segoe UI Emoji&amp;quot;, &amp;quot;Segoe UI Symbol&amp;quot;, &amp;quot;Noto Color Emoji&amp;quot;; font-size: 14px; font-style: normal; font-variant-ligatures: normal; font-variant-caps: normal; font-weight: 400; letter-spacing: normal; orphans: 2; text-align: left; text-indent: 0px; text-transform: none; widows: 2; word-spacing: 0px; -webkit-text-stroke-width: 0px; white-space: normal; text-decoration-thickness: initial; text-decoration-style: initial; text-decoration-color: initial; float: none; display: inline !important;&quot;&gt;&lt;font style=&quot;color: light-dark(rgb(0, 0, 0), rgb(255, 255, 255));&quot;&gt;/live.daoanchor.v1.DaoAnchor/FetchRoomByIDs&lt;/font&gt;&lt;/span&gt;" style="text;whiteSpace=wrap;html=1;container=0;" parent="1" vertex="1">
          <mxGeometry x="1329.2409638554218" y="538.4153005464481" width="312.144578313253" height="30.601092896174862" as="geometry" />
        </mxCell>
        <mxCell id="TBjgYFarW2Dbs7BD7Aav-66" value="全量在播房间缓存" style="shape=process;whiteSpace=wrap;html=1;backgroundOutline=1;container=0;" parent="1" vertex="1">
          <mxGeometry x="1122.67" y="584.32" width="127.33" height="45.68" as="geometry" />
        </mxCell>
        <mxCell id="kkx-y02vZw7PXE-kP8p6-4" value="" style="shape=image;verticalLabelPosition=bottom;labelBackgroundColor=default;verticalAlign=top;aspect=fixed;imageAspect=0;image=data:image/png,iVBORw0KGgoAAAANSUhEUgAAADgAAABCCAYAAAACPxW5AAAMP2lDQ1BJQ0MgUHJvZmlsZQAASImVVwdYU8kWnluSkEBoAQSkhN4EESkBpITQAkjvohKSAKHEmBBE7GVRwbWLBWzoqoiClWZH7CyKvS8WFJR1sWBX3qSArvvK9+b75t7//nPmP2fOnblzBwCNExyRKA/VBCBfWCCODQmgJ6ek0kk9gABMAAIA0OZwJSJmdHQExGDw/vfy7obcElx1lGn9s/2/Fi0eX8IFAImGOIMn4eZDfBAAvJIrEhcAQJTxFlMKRDIMK9ARwwAhXijDWQpcKcMZCrxXbhMfy4K4FQAVNQ5HnAWA+mXI0wu5WVBDvQ9iZyFPIARAgw6xb37+JB7E6RDbQhsRxDJ9RsYPOll/08wY0uRwsoawYizyohIokIjyOFP/z3T875KfJx30YQ2rWrY4NFY2Zpi3W7mTwmVYDeJeYUZkFMTaEH8Q8OT2EKOUbGlogsIeNeJKWDBnQA9iZx4nMBxiI4iDhXmREUo+I1MQzIYYzhC0SFDAjodYH+KFfElQnNJms3hSrNIXWp8pZjGV/DmOWO5X5uuBNDeBqdR/nc1nK/Ux9eLs+CSIKRBbFgoSIyFWh9hJkhsXrrQZU5zNihy0EUtjZfFbQhzLF4YEKPSxwkxxcKzSvjRfMjhebHO2gB2pxPsLsuNDFfnBWrkcefxwLNhlvpCZMKjDlyRHDI6Fxw8MUowd6+YLE+KUOh9EBQGxir44RZQXrbTHzfl5ITLeHGJXSWGcsi+eWAAnpEIfzxQVRMcr4sSLczhh0Yp48GUgArBAIKADKawZYBLIAYL23oZe+KRoCQYcIAZZgA8clcxgjyR5ixBe40Ax+BMiPpAM9QuQt/JBIeS/DrGKqyPIlLcWynvkgqcQ54NwkAefpfJewiFvieAJZAT/8M6BlQvjzYNV1v7v+UH2O8OETISSkQ56pGsMWhKDiIHEUGIw0Q43xH1xbzwCXv1hdcEZuOfgOL7bE54SOgiPCNcJnYTbEwVzxT9FORZ0Qv1gZS4yfswFbg013fAA3AeqQ2VcDzcEjrgr9MPE/aBnN8iylHHLskL/SftvI/jhbSjtyM5klDyM7E+2/bmnur2625CKLNc/5kcRa8ZQvllDLT/7Z/2QfR68h/9siS3EDmBnsZPYeewI1gDo2HGsEWvDjsrw0Ox6Ip9dg95i5fHkQh3BP/wNvllZJiXONc49zl8UbQX8Itk3GrAmiaaKBVnZBXQm3BH4dLaQ6zSC7uLs4gaAbH9RfL7exMj3DUSv7Ts37w8AfI4PDAwc/s6FHQdgnwdc/k3fOVsG3DpUATjXxJWKCxUcLrsQ4FdCA640A7h/WQBbOB4X4A68gT8IAmEgCsSDFDABRp8N57kYTAHTwRxQAsrAMrAarAebwFawE+wB+0EDOAJOgjPgIrgMroO7cPZ0gRegD7wDnxEEISFUhIYYIKaIFeKAuCAMxBcJQiKQWCQFSUeyECEiRaYj85AyZAWyHtmCVCP7kCbkJHIe6UBuIw+RHuQ18gnFUDVUBzVGrdGRKANlouFoPDoezUIno8XofHQJuhatQnej9ehJ9CJ6He1EX6D9GMBUMT3MDHPEGBgLi8JSsUxMjM3ESrFyrAqrxZrhe76KdWK92EeciNNwOu4IZ3AonoBz8cn4THwxvh7fidfjrfhV/CHeh38jUAlGBAeCF4FNSCZkEaYQSgjlhO2EQ4TTcC11Ed4RiUQ9og3RA67FFGIOcRpxMXEDsY54gthBfEzsJ5FIBiQHkg8pisQhFZBKSOtIu0nHSVdIXaQPKqoqpiouKsEqqSpClbkq5Sq7VI6pXFF5pvKZrEm2InuRo8g88lTyUvI2cjP5ErmL/JmiRbGh+FDiKTmUOZS1lFrKaco9yhtVVVVzVU/VGFWB6mzVtap7Vc+pPlT9qKatZq/GUktTk6otUduhdkLtttobKpVqTfWnplILqEuo1dRT1AfUD+o0dSd1tjpPfZZ6hXq9+hX1lxpkDSsNpsYEjWKNco0DGpc0ejXJmtaaLE2O5kzNCs0mzZua/Vo0rVFaUVr5Wou1dmmd1+rWJmlbawdp87Tna2/VPqX9mIbRLGgsGpc2j7aNdprWpUPUsdFh6+TolOns0WnX6dPV1nXVTdQt0q3QParbqYfpWeux9fL0lurt17uh92mY8TDmMP6wRcNqh10Z9l5/uL6/Pl+/VL9O/7r+JwO6QZBBrsFygwaD+4a4ob1hjOEUw42Gpw17h+sM9x7OHV46fP/wO0aokb1RrNE0o61GbUb9xibGIcYi43XGp4x7TfRM/E1yTFaZHDPpMaWZ+poKTFeZHjd9TtelM+l59LX0VnqfmZFZqJnUbItZu9lncxvzBPO55nXm9y0oFgyLTItVFi0WfZamlmMtp1vWWN6xIlsxrLKt1lidtXpvbWOdZL3AusG620bfhm1TbFNjc8+WautnO9m2yvaaHdGOYZdrt8Husj1q72afbV9hf8kBdXB3EDhscOgYQRjhOUI4omrETUc1R6ZjoWON40MnPacIp7lODU4vR1qOTB25fOTZkd+c3ZzznLc53x2lPSps1NxRzaNeu9i7cF0qXK6Npo4OHj1rdOPoV64OrnzXja633GhuY90WuLW4fXX3cBe717r3eFh6pHtUetxk6DCiGYsZ5zwJngGeszyPeH70cvcq8Nrv9Ze3o3eu9y7v7jE2Y/hjto157GPuw/HZ4tPpS/dN993s2+ln5sfxq/J75G/hz/Pf7v+MacfMYe5mvgxwDhAHHAp4z/JizWCdCMQCQwJLA9uDtIMSgtYHPQg2D84KrgnuC3ELmRZyIpQQGh66PPQm25jNZVez+8I8wmaEtYarhceFrw9/FGEfIY5oHouODRu7cuy9SKtIYWRDFIhiR62Muh9tEz05+nAMMSY6piLmaeyo2OmxZ+NocRPjdsW9iw+IXxp/N8E2QZrQkqiRmJZYnfg+KTBpRVJn8sjkGckXUwxTBCmNqaTUxNTtqf3jgsatHteV5pZWknZjvM34ovHnJxhOyJtwdKLGRM7EA+mE9KT0XelfOFGcKk5/BjujMqOPy+Ku4b7g+fNW8Xr4PvwV/GeZPpkrMruzfLJWZvVk+2WXZ/cKWIL1glc5oTmbct7nRuXuyB3IS8qry1fJT89vEmoLc4Wtk0wmFU3qEDmISkSdk70mr57cJw4Xb5cgkvGSxgId+CPfJrWV/iJ9WOhbWFH4YUrilANFWkXCorap9lMXTX1WHFz82zR8Gnday3Sz6XOmP5zBnLFlJjIzY2bLLItZ82d1zQ6ZvXMOZU7unN/nOs9dMfftvKR5zfON58+e//iXkF9qStRLxCU3F3gv2LQQXyhY2L5o9KJ1i76V8kovlDmXlZd9WcxdfOHXUb+u/XVgSeaS9qXuSzcuIy4TLrux3G/5zhVaK4pXPF45dmX9Kvqq0lVvV09cfb7ctXzTGsoa6ZrOtRFrG9dZrlu27sv67PXXKwIq6iqNKhdVvt/A23Blo//G2k3Gm8o2fdos2HxrS8iW+irrqvKtxK2FW59uS9x29jfGb9XbDbeXbf+6Q7ijc2fsztZqj+rqXUa7ltagNdKant1puy/vCdzTWOtYu6VOr65sL9gr3ft8X/q+G/vD97ccYByoPWh1sPIQ7VBpPVI/tb6vIbuhszGlsaMprKml2bv50GGnwzuOmB2pOKp7dOkxyrH5xwaOFx/vPyE60Xsy6+Tjloktd08ln7rWGtPafjr89LkzwWdOnWWePX7O59yR817nmy4wLjRcdL9Y3+bWduh3t98Ptbu311/yuNR42fNyc8eYjmNX/K6cvBp49cw19rWL1yOvd9xIuHHrZtrNzlu8W923826/ulN45/Pd2fcI90rva94vf2D0oOoPuz/qOt07jz4MfNj2KO7R3cfcxy+eSJ586Zr/lPq0/Jnps+pul+4jPcE9l5+Pe971QvTic2/Jn1p/Vr60fXnwL/+/2vqS+7peiV8NvF78xuDNjreub1v6o/sfvMt/9/l96QeDDzs/Mj6e/ZT06dnnKV9IX9Z+tfva/C38272B/IEBEUfMkf8KYLCimZkAvN4BADUFABo8n1HGKc5/8oIozqxyBP4TVpwR5cUdgFr4/x7TC/9ubgKwdxs8fkF9jTQAoqkAxHsCdPTooTp4VpOfK2WFCM8BmyO/ZuRngH9TFGfOH+L++Q5kqq7g5/u/APEjfEKALSgGAAAAbGVYSWZNTQAqAAAACAAEARoABQAAAAEAAAA+ARsABQAAAAEAAABGASgAAwAAAAEAAgAAh2kABAAAAAEAAABOAAAAAAAAAJAAAAABAAAAkAAAAAEAAqACAAQAAAABAAAAOKADAAQAAAABAAAAQgAAAADUH3k7AAAACXBIWXMAABYlAAAWJQFJUiTwAAAZ+0lEQVRoBaVbaZBcV3X+ul/vPd2zb9ola7FGli0vxFaEY8fgQBywMYEAVaSSVJJK8YOkUmSrFD9cIf/IUvxIpYoKqQqVmB0MScoYbIITImxhjGSwrcU2MyONZI00+0xP753vO/fe7p6RXIbKHb13t3PPOd89566vFSuV1lsMiMWwKVxTsKl+c7YF8B/UjPyUaDVqaKwso7m2ApTLlhdNLJlELJ1BPF9AvNCLWCLh2kgJtTVl3ki+eP+sIQZx/n+A88KoVKvRQLO8jsb8FVTPvoTa5FnULk6jtbyMVqWCVr0KkEYdEItHAEHGBbLYi8TYdiT3HkBq7wSi/iHEslmANLF2r78R2DcDSmylUuk6XfJmDNnEt2pWKyi/fAqVUz9A7dUzaFydRZOA0Go6S4hOil6Ppaxl1hbouFk1MTyC1L6DSB++A+kbb6a1U2RAug1W9cLfDJ9EXwvwepoETlJIOjXpdqsov/Ac1p54DLUZWqopoXRL/jkOHpQHoDoF6emGhMtboVXwZSxE4DontesG5H/lIaQnbkFEdwY74ecNPwdAQ4Zms4m1p59A6bvfJLDzdM06tabgNpAApUsVYZHy14QA0le2XVId4YHSVZPbdiL/9nchd+w+V95Fdw3LTQWbAAaB3VQC5vSrTp7D0hf+GZXTP3EEpleX9hTcmbBC+bU8Yxss3cHeofRtrcCXNhtI33w7et/3W0jt2O3k/wxAY2t+DHo21lB6h3yLFpOVVp76D6z++5fQWOWMqGBEXlWmOxOCnNSFwKPDzTWUE4c6z8a3UKQaK2UkxqFMcQtRoYjiQx9C7p53IBZxIupyW99KhO0QW1u73iSjeipKAQK09NV/Rek7j3vFqR45tYJg49pROVjQdGv3sBqQZTuvtIngi8F4MTaaUNDhuYE2ruWnicI7HkThwQ9ybPZ4voGJ2nfCGwB04OqL85j/9N+j8uJJAiKDMM5MOc/Q0l4ZIW9r4+s7sjopVsXUQ/ynDnGhY9U24A7iTltLWUNkDt+Ggd/7Q8R7+70HsXxTuAagORiF1hYXMPePn0T1pRc4e4mhWvLVbYVNzEJWYgJUlbXTb9K2TWeMPGBzFxaEts41jEIzd/rQLRj6g48h6u3zNBtBbgAocBpzDS4BVwmucuo5NuIMuVljY89iamRKbeQpbTyFahksy1dQzhrZ641Yu3adxkx5Xm3eni95Zg7fjsGP/AndNU9ZWkqCfNrGeNiLDEjc5G5j4WuPdsBJqcCbafNCK7PucC09iYqNtp3w3Lmstd071MlFmTYXVXt7lHc82q4bCjwrr0AgIpaYrcdLX/+86e50FRMXuFVTcIybXGCXnvpPrD3+mFtUaU0XJF39wgFuCKWQxp2CVTBq51yZ+s6UM6LOS+Ryt7DTsZogRzzYyXxbSu1d0Yb2JlLlCtpgkN8qdY5Gx1G87wEWUlOrjzkLio92J+vTU1j56qMOXLdyrFcwm7E89K4vdjgcEzHq5F0zviXNP5SsrtGkZfzsLd6qF8fQcb4JIwvd+pDUHIAVLmY7Lhcrj30OtUvnaeSgGZBwQpqost+e+fHj2LG8hIQmFYVAx2wQb2VUzlO0SQKpWVZTOYVojbJNeL1uY1sbaGvYZJ6axWIRWtpUSxQ72DzEAHqB3Too3S3UGnWVqXL9KmY/91mMf+wvEZd86plQdzfoiqcun8RXU2fw/v4Udixw56+26uWguQqYNk9koYqDPFW1A9toHIOLcHJkHJl9E8jesB+p0TFEObdmtaqraFYvo1X+KdfZl7iv5ZavWWWHsAMkMDAOHRnyEqI0yzcq5qWraeIHaC4cR6zvqBUmGnLN2jqemvou95ktfP/2EWx9fArxJHvXowuzpbUQMh8sGYQrI8HaUh24CaMf/B3k991IUJzZCLbJxVnVCoaBs10sztHWXOO/aVSmvoja7P+QhyxqzBxx4M84JDdWkB8LVGfqUtnWRe648jcjkcjTRQnq5bkzOL903tpN7SzgxV09OHy+1OYYRoUxcdw3CRPzFhIjYxj5wG+j/+63IZ5KSyT/YlhcbWFupYX1irN8JhlDf6GJwSIngXgPD70TyB36OGpjz6Dy08/Sqq+yMzTBU/U2KiaUbue9It0kBpUkpSketF9Ak1ZMVGpl/Nf003TTmmNaq+PEW0axZ+Y15JphrKmPqJyY28tEewmM2EnJ/Qex848/juy27SyIocJDxpmZOp48WcHp89zLrnN9DZMlKQrZGHaPJfD2I2ncsjuJbDKB5NAxRMWDKJ/9FOpXjpNNZxXbjKstPFQIKF3EOV0DsdlvoFG4FdHDv/++R7499SRVco4hinImQna5iu1X1onHcTBswskQc4uhy7Asc+QO7P6LTyBDC7Y4Mb9yqYnPfHsVX/peGZOzdYJl56hjvDJiWakBF+caeOZ0DS+xA/oLEUb6EogSWSQG7+ItwGW67msS5uSYXJ/sFLXrQsJVEU11Do2eQ4hu+8Adj0wtTTvreROLeHY0hxvOLCDL+cLZz7FwNvU9pYrtO7Hrz/8KmYEhNNnjP3ylir/52gqmr/BQzPqY3+YZD1rQYr4UB92vLnMGP1NFTyaGXaNJDtkEEv1H0Fj8MYFeaRMG+tBRjgkZiZkP7STnglaUQ3TgvQcfKXGS8SIdGa1YTcdRI8c9M6sUwH+hZVfvtXI5bKflijx5twhOSn7qGyturJmvyHJu3HXWPQ/SSxRbjVN1xo9eqyFLuXu38L4mnkLUdyNd9XscArwCYXAApYyU6IqtUq9AowTdu1FFfG593mhN/6AU6+O1Js7u78PlPKduBqcIY866UrnFHircfR/6OPYUZpca+KcnVlGtcidC4vCIpbUVUKWVCcHn1QmawTXhPfrdNbw4Tf8liCi3G8mt72YjuhHD5raBjasMgDulMS5F8Spvu0xpCTDFnVQNmWoyjuO3DqFV5YwRtPMKxuhGo/e/mx0VocbJ6DPfWsPV5QYapHNW87HypjxZOKhWL0C+qxw96Zp8yuzYT7OjlnlMZRbJsXfy4oknhe7gdWgXOdNKgHt8RaxZ1oJPMeKkOkahrRXx9eq+Pry8JdtWwui4M8nxLJY/MGH0L05X8ey5it0JUW8nJ8Tia49TWPXdNO00aZSW801xYnr2bNky8fQwouFfIpOuKZg0FsR4U2gXKUH945paOxppFhDgziOpJ24bBm82HRnzmhF76Z7WliqdOFsxF9PeXFSyxM/0GLpAK4AuLZW+f7oCcxzyTwhgLEmNva4BlHrDQjvhdQrFcR1lVelwuwVd+dCAMYVe4Yz68jgvaf1CFk+n0TNx2FppvbMxw1ZSkP/cI65Kt7kr7+pZ1K7zGNt1spNc+tzFurmrFq94bgfx9bLG6SW+FjSO9DCEMhe7Mo1j7obFUARKSAH3WLnSakz640fHsRS5fJx7ygRvpCW8wjFzeZFTcqC1mJYwS5NeMR8Dby2UdvLUJljN5Jiirn5xrYHLCwaXe3TuipJF4TB9gudYgbCwsSuzEv9iBRWPm8rtNaCLQBItMEE5K70pPDvR7wRk0oj77wkVzpolbsGC0qYSm6i5yqycaetElhJTpzOcAOd56hh71LaFOifOuRV1HIm4PwX3lQreNpa2jNW77DVvEtvBqC3UJaSBCekWGG+0cHpiAFc5FDqurDRBcPB1mnpFTZrjY0BJaTMnCYPVXKz2vjNIGGSSI2fkbpXdscr1hqnYqfR0tlva2AWIS7gFxXzMbXyRae/TctNSTxLHD/ejUeaUI63ILBHxSWihdoqLjfFUnmkHXIqHtIkxrqJzgNRBpKEMK6NgWUo7G8Us5VLIr1NBeVfYYSQSCd4c5KJtyaQwISTSiVhpa+XTysco/cyhAZzL1lAtlahQDNlUDH15G8quvejZ0invAHTAe+t5i4lQdep5tWLSHrXNkO94n99k6IBc446KAMXbvZRQcGit3BW4Ml+gixMrtjdpPQuTpDID5po4Up7Sn9mXxvKFSWuXosvu4akgdI5TUsr6x6jcS3Umrl0XZJOWoEMbJrBlII5CjtqQpFFeAO8xfWPxCiYMscquFzgDdzMVNzFUmQUfGw27VX/S5OJYFideO2Ek9FDcuT/Fo5A19BYJyiqmlVjXnlXZyvgpFk/V8+Xc2ckQrzv3p6Fzo6b6yuILdFGeT7uM0T1rioecuQ2XeQXlbScTetX0F7X+MbakiJUIQeXpBJ6ovYzFlXmNDryFFt0yENmkIFJzO9J3XNOp5vpAYBxggXIu6uSpXk+eY++emzKmQ7PBBf/173Q2+x5Gt0pSTRq2x6gKREcBcfWsq1aZI1E/ut5QrJyCALuU+mq2sYTjk89qK4R+jsGPPFBkmvX6R7q2xZh2neViB5LcPZ3VsdB4Gy3woXt6sGM4YWvb+hw/Gyy9RE01Hp1W0oZiu0JXRiraQx14NxTXhwzp3f2YcN9ctApOgUDXREQJ3zr9JBbXFq3X37I3jffclbfNtpiJn2sX2riYb0vIcj5ps6doeS7GsQnyuTNnFmvUyyhNfsU60ZjZqwuM8l6Okq6GbyU4cenTZRz10ICU3ppUz5QwRUPvGi/VOOXF9/zyeXz+2S+STIBb+N37i3iQytXlewzOVdmTBtjFSm8ul7gGF71foKv/6cO9SHPsSc7rk99Ea+GU26WYmkFXxZqAXOxGn9r4wITGaKXMI9eRB259pJnUqPj5g5i8Osu7m3gOe8f32X3q7XszPLTGcG6mhlK5ab0f1OqW4NSJccfCbwv8DP/w0Tz+6ME+rn3usunlyWdQO/cPKCboZpzJbEdCUA4SOXUxdUkiEAj/6OvV3FIa0b0P/fIjS60lHnXaTbv1cJY0hw9dEDiHfAsvTP8Evdwr7hnbY657084U7jmc4WYZuDDHTTO3cwrmlUwq1j4hSUvddWMWf/bePrzztjw4d1G/Fn40eRIvPf93uCm9yjsaguPSpM6U5DA7hFk0aGMC+Ar5ermBq7VtiH3yC3/bevry08gU+dMNgx9Irxc7EVZjilIdunCDG8cWbxXec/ODePiO96InmzdFpdLMfB1nac2p2RrHqzylhWI2wtahBPbzamLXSKI9xmo8fD/xwpN48vl/wUe3LWGQHZBI6P40KB4gBhiuQ4I+boPi9J67sIb54V9DYsfgdhReL6DMAR3xgnZDMH5uPLjyMMt2qHSppB6Wm3/5+a/g5OQp/ObdH8bEtgkkE0mM98expZ9HrbimfddODiELauJSusGdyuTsFB49/jk8P/0DfHRPHYO0XETXDJYzVdjc2bFjimBX2cazR71cx3y1D+mBG3h5VejHvt69OLlyElGP3xoZI76shZ8xpJu0YZmEKdgYF416mAols0m8svgKPvH1v8ahLYdw5547cWj7BEZ7RzhxZKiwxpfANXnMqmJ+dR6nZ07jxCsncHLmFNa4mB8dAm7OC7gDJ2FBnsU+0zkAUQHpoHKv2xK9pj50BL09/UgU+PuTPcO7cZq327V6jT7vd+3qbo1LonBtKdTzchzF01nXlKHuTfZPkgOpyYnj1KVTeG7yOWSiDEaKoxjvHUMh02NtVitruLw8y+d1rNXWkEzxmpBPIRXHgyM1/fyqbT06KHM+GKqQFyoFp50Dx2+Fa3XMlTied+5FOl0gwGwBQ72DODCwH8/NPYdsP9cgWUpBLqSIjytxCEOZvhU6UgIVrRlI1wRK08X0fYNrxsW1GS4p0zZexUj8I7p1nEMik6L70hU1Ot8z1gTnJ5MmGm0ivGCnhLmM6n0IGBXzUcfOXlxFbfBeFAvD7GwezCWgvziI/aP7MbU4jfnSPNJ5fVdwjYwH5cigYcw42KFeFILMtyxuoAlYFqV36xNanJlEy7s/ya1TRMoesTTb7c408bY+VrKNANsfyyXXgolgxv5Rg1DuiozPIm/il6NtyIwdQiY3gCiV5TcS/hasmCtgsG8AR8Zv4YcL7ih00eJ0NutJiv5cmXNLJ1VlnlDgpJbyTNvkwzEX1yzI60d9rYrT/aMUH6Y1FGx9Y714PzzCr1LcMGi5Cn8GLiBUzH8Kqu8Okrm8UMPsPK2+9SgKxSGk6JlRlKLceALZTA6DdNOtQ1txsP8g1pf4q8Eap37jyLcYC4ti8hZ71VkxK902TgSqoXgDqemdaT5S2hSnEW3Kp4W4YPImgrMvWxzrb+J2P7HILfXnghcYQPpSRUEnka6v1Omaa6gN3YoCV4VMfpBjmkMtrhtyXuCmEimevYoY6R/BxNYJ3JDfjfWFEpq8UJIwB8V1oB1xgiBhkgQGAyWpXjdFlhRYA0xKv2AHeuJGX6KJ3xjhCOT42TDmRNQec4GbcTRFLEW+ZYK7dH6Ftw03IrftNuQKIxx7/B1qZODkJfwSy4yNRS4ZowMjuGXbEQxFg1hfJEgu4ibY2UtSPVL1LpM6qaoLQi+7YoJzCQNOiqCigZWVWKDN9f2D/E5IO4aO8s3E+vrB8xeD8moNFwluLc4vyTuOoqd3mGOPS4PGHt1Tl1VxzWYRjyKyYp47kKG+YWwZ2oKju36RIIdQoiXrFX5vk0btICnKM273cqhUnTbUjiRMTAGh2OjRRnlPto4H6J5vCkqsja3kKRPDynwFM1MrWI2N8se0b0dhYAuy+WEk0nmO9RS9hcsdsSWkeMRxmOSdZ5PuomWj0d/giaCOo627eOY7jqsLV5EuZJHM6XZZwVnMMHfjtnJH0f0OxjV6DzwZa+LD4y2kuIzw04YPSngCKzE0HpRL65yp2fLqbAnl5LiBKxJcjstCKkPXTPJKk2NPP3DQDsR+JyMXjMtVubXKtDIo5ou0gHObY/G34vmpH0LfEJu1NFIFzkycAcM50kvfpBizZqWgrIsDUFn3zkIdeyN+9eX9p/MOB8BZyKcF0oMXTXmVk8nlElaXKqgUDiBLLysMjCPLjUQq00tw2hLKNTUza4vAvaw4iIdclberZsVMM4tezmoK2memafLcdA5nF8+hVq3ZOpngtszWPZLZJNTWySfMdb12xknlyrdAH8EHRriWhW/aQizzGrlvYxHLyadebWB5voy5q+v8WpzgNuwO5Hfcjp4ix1wPH4KLkn7c6eRPY4VO4w5SPGhB/mktTvIPSQnMGvQ4e0OW1Xo5dmUMP7zwPBYXFpEqp5DMkJpAOZBtkrEJR3MOmbbHXsDFYoFjBd7PHcswPcR99RO9Gvh6NdY/PrVyC0tzJSwtVVEp1VBJjSKx5y70Du6gSw7ZciC3jGQ5G3feNdVYTBjMRZVUh0fafqgHNANZ0Gyny10tJbzlSmcxUBjEmYun8crCOayXS7wfpWvzxJrI8NhD1wX/KYRfG4UlxpdyK1bHsXyT3xS1LIjQz5/a+VAJLU2V9TrdsIqVFQKrsiMiDpnRg8iOH0K+0OeAZfuQSvEXGvw1RzyepjfJoyhc1nPC7G0AlZIY7S05p1JJRyJw8mQulgYyk+JMy01BT7YHu5d38zT/Kl6df40n9zXbLEf8XqGdi3Yqce5YlJaLmznkyJxQPjQKpMlXfWkfZQioxlm6TFAlWqnMdJ2bjDqBVSN+URrhtmvoBmS5hGkJSGV72aFFHpYzPMEQHI3hwElOANeB2AYYQAp+pO0Gjev8mNC1E2FZggB07MkRZJGnkKHeIexf2Y/zc+dxYekCFstLqPLk2+InHduDaqvGJ+xo8jyt5LgXnCF37VMbHIN1rrOK+UWcF1b8wVDEi6vMMGIjO/nDBu5KcryjYYdqEknyNJJM5txMybU7xgklxhVgo+U64IRpA0AVqFrDQZNOIBU4PTrPJcg4RUvmMnmU8iWeuXq5dhJoeT9WS6t2xptdvsxN+wJ/G7MCnsy4DBAAucb4ZXien5VTNmZ1guCkxh8CNdP8RM39Y1QcQyo/QC/JI5XO0e0JiG6Y5LbLFm9ZLIw1bcNoMQ0p+ZkLQWOfZRRbWl62TcjmKjfmNYL0Wzb+rxY+dT41/nedOhWtMtYVQ0X/MaRa5i8r1vmULF/lYbbM8irL9UOjGn/FEeO6WuRauzfVYCeps/grCu44Iq5bUj7BSUxPRBDaR2pWTCQyLPNuyIkubtai1eSKYbzR3d8InMoT09MXsGP7NrvKk0t2k2t2VV4bAdsEB0uSedTUxENrUqEsJx+Nyxp/tlGtETgB6vCsp8GOiLFjeO+NPF23SJ9J0uXlDdoHy8W0b4zkcgSdoIU0ruQpROlBEZBoYx13lK+FIeQAdt4yiupmLl5C7K33v7v14Q++D796/9sw0N9Ha9GZ/CJPKt9KTdykoLoGf9YhOlm2wdtVy3PF1u5H40l3LFbHev3cJMY23BpAc3OKVuT2yW7fNAFpAtO50FnHWcb+u4AHI1A2edhkxWFDWu1QFJx67jCgCUtjXfdKi4tL+Na3n8K/ff5LiO2/9ZgtyVvGRvDrD70L9917N0aHh9iLEkwuRGbg/DZE/qw/99FTv2ZyQEOsXy/a7EhguuC1E6wB1OQlcIq59DA2ZZk2S2g8UXlzP4EIY0tlBOd2Jr6NgfOd73VUh87NzeO/v/e/+OKXH8PFS5ess2MHbrvbqUwCISkWerBn1w5s27oFW8fHMDQ0iEJPD+83uLBzFtVMGoIBVyMBFjBxYuxurpUXJXuWCemhqwzCoLWoKGMbAGYR5qw3Fcs6rta3Yt4YMdbMy3mAPxgsV8pYXV0jqDmCuYwLMzOYnJzG4tKS8dKkKJ6xG++4h3qRgVfOuPClvaZkapp35zRTxxoFGos9iO4y49cucGq2s76RIDggLtqQD3Wu0OGz0zYrpKr+tL1TZ3KoaANuHueqqbfzCsVmDuciAuA4sp0t0s4CWp+oSsiIuYFyWAXG2ksplQellGcQTykUgglnxpQMDUJ1YGzE3a3UgEpJcSVNjjqOf5rwZHSlWWmW65L3f+ojThCLY1vLAAAAAElFTkSuQmCC;" vertex="1" parent="1">
          <mxGeometry x="-90" y="255.36" width="56" height="66" as="geometry" />
        </mxCell>
      </root>
    </mxGraphModel>
  </diagram>
</mxfile>
